<svg id="Layer_1_1_" enable-background="new 0 0 64 64" height="512" viewBox="0 0 64 64" width="512"
    xmlns="http://www.w3.org/2000/svg">
    <path fill="#091133"
        d="m11.70703 29.60645c-.28613-.28613-.71582-.37305-1.08984-.2168-.37403.1543-.61719.51953-.61719.92383v22.68652c0 .55273.44727 1 1 1h22.68652c.4043 0 .76953-.24316.92383-.61719.15527-.37402.06934-.80371-.2168-1.08984zm.29297 3.12109 6 6v13.27246h-6zm8 19.27246v-11.27246l11.27246 11.27246z" />
    <path fill="#091133"
        d="m54.70703 2.29297c-.1875-.1875-.44141-.29297-.70703-.29297h-35c-.55273 0-1 .44727-1 1v21.58594l-14.29297-14.29297c-.28613-.28613-.71582-.37207-1.08984-.2168-.37403.1543-.61719.51953-.61719.92383v50c0 .55273.44727 1 1 1h50c.4043 0 .76953-.24316.92383-.61719.15527-.37402.06934-.80371-.2168-1.08984l-6.29297-6.29297h3.58594 10c.55273 0 1-.44727 1-1v-35-8c0-.26562-.10547-.51953-.29297-.70703zm-50.70703 57.70703v-46.58594l4.58594 4.58594-1.29297 1.29297 1.41406 1.41406 1.29297-1.29297 1.58594 1.58594-1.29297 1.29297 1.41406 1.41406 1.29297-1.29297 1.58594 1.58594-1.29297 1.29297 1.41406 1.41406 1.29297-1.29297 1.58594 1.58594-1.29297 1.29297 1.41406 1.41406 1.29297-1.29297 1.58594 1.58594-1.29297 1.29297 1.41406 1.41406 1.29297-1.29297 1.58594 1.58594-1.29297 1.29297 1.41406 1.41406 1.29297-1.29297 1.58594 1.58594-1.29297 1.29297 1.41406 1.41406 1.29297-1.29297 1.58594 1.58594-1.29297 1.29297 1.41406 1.41406 1.29297-1.29297 1.58594 1.58594-1.29297 1.29297 1.41406 1.41406 1.29297-1.29297 1.58594 1.58594-1.29297 1.29297 1.41406 1.41406 1.29297-1.29297 1.58594 1.58594-1.29297 1.29297 1.41406 1.41406 1.29297-1.29297 1.58594 1.58594-1.29297 1.29297 1.41406 1.41406 1.29297-1.29297 1.58594 1.58594-1.29297 1.29297 1.41406 1.41406 1.29297-1.29297 4.58594 4.58594zm21-45h4v20.58594l-4-4zm.61816-2 1.38184-2.76367 1.38184 2.76367zm12.39844 20.11328 1.7041-5.11328h2.55859l1.7041 5.11328-1.58862 15.86743-3.10498-3.10498zm3.9834-11.11328v-4.51312l2.82715 4.52386-2.39337 3.98926h-2.86755l-2.39337-3.98926 2.82714-4.52386v4.51312zm2.22198 28.80792 1.77313-17.70831c.01367-.14062-.00195-.28223-.04688-.41602l-1.85437-5.56305 2.76355-4.6059c.19336-.32227.18945-.72559-.00977-1.04492l-5-8c-.36523-.58398-1.33008-.58398-1.69531 0l-5 8c-.19922.31934-.20312.72266-.00977 1.04492l2.76355 4.6059-1.85437 5.56305c-.04492.13379-.06055.27539-.04688.41602l1.052 10.54321-6.05686-6.05688v-23.58594c0-.15527-.03613-.30859-.10547-.44727l-3-6c-.33984-.67773-1.44922-.67773-1.78906 0l-3 6c-.06934.13868-.10547.292-.10547.44727v15.58594l-3-3v-22.58594h33.58594l5 5h-3.58594v-2h-2v3c0 .55273.44727 1 1 1h6v6h-9c-.55273 0-1 .44727-1 1v34h-4.58594zm7.77802 1.19208v-33h8v3h-2v2h2v3h-2v2h2v3h-2v2h2v3h-2v2h2v3h-2v2h2v3h-2v2h2v3z" />
    <path fill="#091133" d="m6 56h2v2h-2z" />
    <path fill="#091133" d="m10 56h2v2h-2z" />
    <path fill="#091133" d="m14 56h2v2h-2z" />
</svg>